<?xml version="1.0" standalone="no"?>
<!DOCTYPE svg PUBLIC "-//W3C//DTD SVG 20010904//EN"
 "http://www.w3.org/TR/2001/REC-SVG-20010904/DTD/svg10.dtd">
<svg version="1.0" xmlns="http://www.w3.org/2000/svg"
 width="78.000000pt" height="47.000000pt" viewBox="0 0 78.000000 47.000000"
 preserveAspectRatio="xMidYMid meet">

<g transform="translate(0.000000,47.000000) scale(0.100000,-0.100000)"
fill="#000000" stroke="none">
<path d="M277 302 c-29 -30 -44 -80 -32 -109 6 -16 8 -16 26 6 19 24 21 24 55
8 31 -15 33 -19 24 -38 -7 -11 -9 -28 -5 -36 3 -9 0 -20 -7 -25 -9 -5 -6 -8 9
-8 19 0 21 3 14 23 -6 14 -6 30 0 38 16 26 9 38 -30 59 -22 10 -41 25 -44 32
-2 7 -7 -2 -11 -19 -4 -18 -12 -33 -17 -33 -22 0 -1 68 30 99 22 22 51 18 51
-7 0 -12 3 -13 12 -4 17 17 38 15 80 -7 21 -10 50 -17 65 -14 28 4 28 4 -5
-14 -18 -11 -30 -21 -27 -25 3 -3 1 -18 -5 -34 -6 -16 -9 -43 -5 -61 l6 -33
67 2 67 1 -59 6 c-74 7 -88 24 -63 76 10 20 14 41 11 47 -4 6 -2 8 3 5 6 -4
22 2 34 12 30 25 15 46 -22 33 -17 -7 -34 -4 -62 11 -22 11 -52 20 -68 19 -16
0 -31 4 -34 9 -11 16 -31 10 -58 -19z"/>
</g>
</svg>
