<?xml version="1.0" standalone="no"?>
<!DOCTYPE svg PUBLIC "-//W3C//DTD SVG 20010904//EN"
 "http://www.w3.org/TR/2001/REC-SVG-20010904/DTD/svg10.dtd">
<svg version="1.0" xmlns="http://www.w3.org/2000/svg"
 width="91.000000pt" height="71.000000pt" viewBox="0 0 91.000000 71.000000"
 preserveAspectRatio="xMidYMid meet">

<g transform="translate(0.000000,71.000000) scale(0.100000,-0.100000)"
fill="#000000" stroke="none">
<path d="M260 614 c-37 -25 -100 -86 -112 -109 -6 -11 11 3 38 31 27 28 63 60
79 72 35 25 31 30 -5 6z"/>
<path d="M358 523 c-22 -6 -24 -46 -3 -63 8 -7 13 -15 10 -19 -2 -4 2 -25 10
-47 20 -55 17 -77 -4 -29 -17 39 -18 39 -30 17 -11 -21 -13 -21 -48 -7 -33 14
-38 14 -55 -2 -19 -17 -20 -17 -33 1 -7 10 -30 21 -49 26 -32 7 -36 6 -36 -11
0 -10 0 -22 -1 -26 0 -5 10 -10 22 -13 23 -6 39 -30 20 -30 -6 0 -11 -7 -11
-15 0 -20 69 -18 93 3 14 12 22 13 42 4 25 -12 25 -13 10 -42 -18 -35 -49 -50
-101 -50 -33 0 -37 -4 -60 -55 -14 -30 -27 -55 -29 -55 -2 0 -12 15 -24 32
l-21 33 0 -30 c0 -16 13 -55 28 -85 22 -43 33 -56 54 -58 20 -2 30 4 44 27 15
26 57 51 85 51 4 0 9 -17 11 -37 4 -45 30 -54 67 -23 29 25 21 38 -11 16 -34
-24 -38 -20 -38 29 0 29 -4 45 -12 45 -30 -1 -97 -40 -118 -70 l-23 -33 -24
27 c-24 28 -29 46 -14 46 5 0 17 21 27 46 23 60 38 74 80 74 46 0 70 14 89 50
22 42 19 58 -16 75 -28 15 -32 15 -48 1 -19 -17 -66 -22 -57 -7 12 18 -7 41
-32 41 -30 0 -27 5 10 14 21 5 28 2 33 -14 8 -24 22 -25 45 -5 15 14 22 14 58
2 25 -9 44 -11 50 -5 6 6 14 -3 22 -22 23 -55 33 -47 28 24 -3 55 -1 66 12 66
9 0 3 10 -17 26 -36 28 -44 64 -15 64 54 0 126 -85 103 -123 -18 -28 -9 -30
45 -7 l49 21 18 -22 18 -22 23 22 c14 13 32 21 43 18 17 -4 17 -5 0 -6 -10 0
-15 -5 -12 -11 7 -11 59 12 71 31 11 19 -83 4 -105 -15 -18 -16 -20 -16 -35 5
-15 22 -17 22 -50 6 l-35 -16 -11 34 c-11 32 -70 95 -90 95 -4 0 -14 2 -22 4
-7 2 -21 2 -30 -1z"/>
<path d="M103 467 c-31 -44 -50 -94 -57 -147 -7 -55 7 -28 22 40 l10 45 -4
-60 -3 -60 9 50 c5 28 7 56 5 64 -3 8 6 32 20 53 15 22 25 41 23 43 -2 2 -13
-11 -25 -28z"/>
<path d="M760 415 c0 -32 3 -56 6 -52 3 3 6 26 6 52 0 26 -3 49 -6 53 -3 3 -6
-21 -6 -53z"/>
<path d="M503 338 c-36 -26 -43 -37 -43 -65 0 -44 -24 -101 -57 -135 l-27 -28
23 0 c13 0 36 -13 51 -30 l28 -30 161 0 c101 0 161 4 161 10 0 6 -56 10 -149
10 -82 0 -157 3 -166 6 -8 4 -22 19 -31 35 -13 26 -13 32 1 60 9 16 19 53 22
80 5 42 12 55 40 76 34 26 35 26 65 9 23 -14 35 -16 51 -8 12 6 31 12 41 14
11 2 21 9 24 17 5 14 -23 10 -65 -11 -17 -8 -28 -7 -47 6 -33 21 -34 21 -83
-16z"/>
<path d="M775 351 c-3 -12 -11 -18 -17 -15 -7 4 -8 2 -4 -5 9 -15 -27 -74 -62
-101 -15 -12 -18 -17 -7 -11 32 15 73 63 90 105 9 21 14 40 11 43 -2 2 -7 -5
-11 -16z"/>
</g>
</svg>
