<?xml version="1.0" standalone="no"?>
<!DOCTYPE svg PUBLIC "-//W3C//DTD SVG 20010904//EN"
 "http://www.w3.org/TR/2001/REC-SVG-20010904/DTD/svg10.dtd">
<svg version="1.0" xmlns="http://www.w3.org/2000/svg"
 width="89.000000pt" height="62.000000pt" viewBox="0 0 89.000000 62.000000"
 preserveAspectRatio="xMidYMid meet">

<g transform="translate(0.000000,62.000000) scale(0.100000,-0.100000)"
fill="#000000" stroke="none">
<path d="M595 560 c3 -5 8 -10 11 -10 2 0 4 5 4 10 0 6 -5 10 -11 10 -5 0 -7
-4 -4 -10z"/>
<path d="M613 545 c-10 -10 -9 -14 3 -19 8 -3 13 -2 9 3 -3 5 0 11 7 13 7 3 8
7 3 10 -6 3 -15 0 -22 -7z"/>
<path d="M373 490 c-36 -22 -56 -53 -50 -78 4 -13 5 -12 6 4 0 12 17 36 36 53
38 33 50 37 58 21 3 -6 4 -5 3 2 -4 19 -19 19 -53 -2z"/>
<path d="M511 420 c-46 -73 -49 -82 -39 -111 10 -30 6 -141 -8 -186 -6 -23 -6
-23 92 -21 l99 2 -92 3 -91 4 9 32 c12 41 12 139 0 170 -10 25 -9 26 86 180 2
4 2 7 0 7 -3 0 -28 -36 -56 -80z"/>
<path d="M509 473 c-13 -16 -12 -17 4 -4 9 7 17 15 17 17 0 8 -8 3 -21 -13z"/>
<path d="M200 446 c0 -3 9 -10 20 -16 11 -6 20 -8 20 -6 0 3 -9 10 -20 16 -11
6 -20 8 -20 6z"/>
<path d="M388 443 c6 -2 18 -2 25 0 6 3 1 5 -13 5 -14 0 -19 -2 -12 -5z"/>
<path d="M200 417 c0 -3 26 -24 58 -48 31 -23 52 -36 45 -28 -14 17 -103 83
-103 76z"/>
<path d="M250 416 c0 -3 9 -10 20 -16 11 -6 20 -8 20 -6 0 3 -9 10 -20 16 -11
6 -20 8 -20 6z"/>
<path d="M460 406 c-6 -8 -28 -17 -48 -19 l-37 -4 36 -1 c25 -1 42 4 54 18 10
11 16 20 13 20 -3 0 -11 -6 -18 -14z"/>
<path d="M134 398 c-3 -4 2 -8 10 -8 8 0 17 4 20 8 3 5 -2 9 -10 9 -8 0 -17
-4 -20 -9z"/>
<path d="M306 378 c3 -4 9 -8 15 -8 5 0 9 4 9 8 0 5 -7 9 -15 9 -8 0 -12 -4
-9 -9z"/>
<path d="M342 277 c16 -44 19 -68 14 -111 l-7 -55 -127 -4 -127 -3 132 -2 132
-2 7 47 c8 55 -9 150 -30 172 -11 10 -9 -2 6 -42z"/>
</g>
</svg>
