<?xml version="1.0" standalone="no"?>
<!DOCTYPE svg PUBLIC "-//W3C//DTD SVG 20010904//EN"
 "http://www.w3.org/TR/2001/REC-SVG-20010904/DTD/svg10.dtd">
<svg version="1.0" xmlns="http://www.w3.org/2000/svg"
 width="67.000000pt" height="61.000000pt" viewBox="0 0 67.000000 61.000000"
 preserveAspectRatio="xMidYMid meet">

<g transform="translate(0.000000,61.000000) scale(0.100000,-0.100000)"
fill="#000000" stroke="none">
<path d="M318 554 c-11 -11 -10 -42 2 -46 11 -4 4 -15 -32 -47 l-28 -24 -18
21 c-18 21 -20 21 -36 4 -23 -26 -21 -52 5 -52 14 0 19 -5 17 -16 -3 -18 -18
-29 -60 -44 -19 -6 -28 -17 -28 -31 0 -18 -2 -19 -15 -9 -23 19 -19 -8 12 -76
l26 -57 18 22 c10 12 28 35 39 49 l20 27 39 -43 c22 -23 53 -47 71 -53 20 -8
30 -17 28 -28 -3 -14 -24 -16 -161 -19 -207 -3 -211 -22 -4 -22 162 0 177 4
177 47 0 18 -7 25 -30 29 -18 4 -43 23 -65 50 -20 24 -43 44 -50 44 -8 0 -29
-18 -47 -41 l-33 -41 -17 39 c-21 48 -22 59 -3 43 13 -11 15 -7 15 23 0 31 4
36 30 42 39 8 65 53 44 73 -8 7 -19 10 -24 7 -6 -3 -10 0 -10 8 0 24 27 27 42
5 14 -20 14 -20 45 11 17 17 39 31 48 31 9 0 13 5 10 10 -3 6 0 10 7 11 7 0 2
4 -10 10 -29 11 -24 33 7 37 56 8 119 -49 91 -83 -7 -8 -19 -15 -26 -15 -19 0
-18 -6 12 -45 22 -29 24 -37 14 -56 -10 -17 -9 -23 1 -30 7 -4 10 -11 7 -14
-14 -14 -30 8 -25 35 7 34 -33 80 -50 58 -52 -65 -51 -122 3 -163 19 -15 34
-32 33 -38 -1 -7 1 -29 5 -50 8 -34 11 -37 42 -37 19 0 34 5 34 10 0 6 -13 10
-29 10 -31 0 -41 14 -41 60 0 20 -10 35 -35 54 -19 15 -37 37 -41 50 -6 24 16
79 36 91 20 13 39 -15 33 -47 -6 -30 7 -47 33 -48 17 0 26 31 13 46 -6 7 -8
18 -4 24 3 6 -3 26 -15 45 l-21 34 21 11 c49 26 1 99 -70 107 -25 3 -48 1 -52
-3z"/>
</g>
</svg>
